<mxfile host="app.diagrams.net" modified="2023-05-06T09:05:36.770Z" agent="Mozilla/5.0 (Macintosh; Intel Mac OS X 10_15_7) AppleWebKit/537.36 (KHTML, like Gecko) Chrome/112.0.0.0 Safari/537.36" version="21.2.9" etag="VhMsA80P4xocvxtnTe1n" type="github">
  <diagram name="Page-1" id="xXF_qz4q6ZDb1wTxfpjC">
    <mxGraphModel>
      <root>
        <mxCell id="0" />
        <mxCell id="1" parent="0" />
      </root>
    </mxGraphModel>
  </diagram>
</mxfile>
